<svg width="328" height="275" viewBox="0 0 328 275" fill="none" xmlns="http://www.w3.org/2000/svg">
<path fill-rule="evenodd" clip-rule="evenodd" d="M20.9092 87.1198C17.5498 88.4163 15.525 91.3945 14.7474 95.3364C10.8889 91.9804 7.01308 92.3216 3.96183 94.7443C-8.76025 104.847 16.5901 142.843 49.3164 141.569C49.3164 141.569 32.935 129.505 34.3889 107.38C35.4513 91.2195 27.5791 84.5461 20.9092 87.1198Z" fill="#FFB600"/>
<path fill-rule="evenodd" clip-rule="evenodd" d="M117.031 123.549C115.618 125.364 115.489 127.661 116.361 130.076C113.143 129.508 111.133 130.97 110.259 133.3C106.617 143.019 133.006 155.488 150.51 144.023C150.51 144.023 137.568 142.806 131.082 130.21C126.345 121.01 119.837 119.945 117.031 123.549Z" fill="#FFB600"/>
<path fill-rule="evenodd" clip-rule="evenodd" d="M149.532 167.844C147.319 167.214 145.141 167.955 143.228 169.668C142.55 166.472 140.441 165.156 137.952 165.219C127.575 165.484 125.897 194.618 143.087 206.549C143.087 206.549 139.367 194.095 148.618 183.364C155.376 175.526 153.925 169.095 149.532 167.844Z" fill="#FFB600"/>
<path fill-rule="evenodd" clip-rule="evenodd" d="M107.083 199.468C103.724 200.764 101.699 203.743 100.922 207.684C97.0631 204.328 93.1873 204.67 90.1361 207.092C77.414 217.195 102.764 255.191 135.491 253.917C135.491 253.917 119.109 241.853 120.563 219.728C121.626 203.568 113.753 196.894 107.083 199.468Z" fill="#FFB600"/>
<path fill-rule="evenodd" clip-rule="evenodd" d="M131.902 25.7763C128.542 27.0728 126.517 30.0511 125.74 33.9929C121.881 30.6369 118.006 30.9781 114.954 33.4008C102.232 43.5039 127.583 81.4996 160.309 80.2252C160.309 80.2252 143.927 68.1619 145.381 46.0362C146.444 29.876 138.572 23.2027 131.902 25.7763Z" fill="#FFB600"/>
<path fill-rule="evenodd" clip-rule="evenodd" d="M44.5123 31.9558C41.6672 29.7488 38.0706 29.5531 34.2928 30.9233C35.1752 25.8863 32.8816 22.744 29.2298 21.3827C14.008 15.7067 -5.44737 57.0315 12.5431 84.3941C12.5431 84.3941 14.4175 64.1384 34.119 53.9588C48.5094 46.5232 50.1612 36.3374 44.5123 31.9558Z" fill="#2277FF"/>
<path fill-rule="evenodd" clip-rule="evenodd" d="M98.9489 48.3782C96.373 48.8413 94.5181 50.6882 93.4211 53.3946C91.1292 50.4685 88.3162 50.1789 85.8049 51.4888C75.3361 56.9482 88.1991 87.551 111.73 91.1431C111.73 91.1431 101.699 80.2802 105.781 64.691C108.762 53.3041 104.063 47.4586 98.9489 48.3782Z" fill="#2277FF"/>
<path fill-rule="evenodd" clip-rule="evenodd" d="M103.811 145.261C100.735 145.814 98.5202 148.019 97.2103 151.251C94.4736 147.757 91.1149 147.411 88.1164 148.975C75.6162 155.494 90.975 192.034 119.072 196.324C119.072 196.324 107.094 183.353 111.968 164.739C115.528 151.143 109.917 144.163 103.811 145.261Z" fill="#2277FF"/>
<path fill-rule="evenodd" clip-rule="evenodd" d="M102.805 29.7791C103.62 26.2722 102.292 22.9238 99.4667 20.0675C104.411 18.7607 106.306 15.3627 106.015 11.4774C104.8 -4.72007 59.1178 -5.09089 41.7913 22.6956C41.7913 22.6956 60.9757 15.921 78.4684 29.5502C91.245 39.5051 101.189 36.7419 102.805 29.7791Z" fill="#0023A4"/>
<path fill-rule="evenodd" clip-rule="evenodd" d="M56.7577 149.842C53.3983 151.138 51.3735 154.117 50.5959 158.058C46.7373 154.702 42.8616 155.044 39.8103 157.466C27.0882 167.569 52.4386 205.565 85.1648 204.291C85.1648 204.291 68.7835 192.227 70.2374 170.102C71.2997 153.941 63.4276 147.268 56.7577 149.842Z" fill="#0023A4"/>
<path fill-rule="evenodd" clip-rule="evenodd" d="M106.558 100.881C103.713 98.6741 100.116 98.4783 96.3382 99.8485C97.2206 94.8115 94.927 91.6692 91.2753 90.3079C76.0535 84.6319 56.5981 125.957 74.5885 153.319C74.5885 153.319 76.463 133.064 96.1645 122.884C110.555 115.448 112.207 105.263 106.558 100.881Z" fill="#2277FF"/>
<path fill-rule="evenodd" clip-rule="evenodd" d="M156.015 110.932C157.134 108.54 156.692 105.935 155.1 103.455C158.847 103.271 160.726 101.122 161.109 98.2894C162.708 86.4822 129.987 79.2504 113.316 96.5458C113.316 96.5458 128.115 94.6101 138.587 107.057C146.236 116.148 153.792 115.681 156.015 110.932Z" fill="#0023A4"/>
<path fill-rule="evenodd" clip-rule="evenodd" d="M68.6184 63.0758C65.9905 62.1677 63.3115 62.9168 60.8896 64.8553C60.285 60.9538 57.828 59.2245 54.8202 59.1348C42.2811 58.76 38.3092 93.8034 58.2531 109.349C58.2531 109.349 54.598 94.0729 66.4784 81.7426C75.1558 72.7366 73.836 64.879 68.6184 63.0758Z" fill="#0023A4"/>
<path fill-rule="evenodd" clip-rule="evenodd" d="M189.121 87.1198C185.762 88.4163 183.737 91.3945 182.96 95.3364C179.101 91.9804 175.225 92.3216 172.174 94.7443C159.452 104.847 184.802 142.843 217.528 141.569C217.528 141.569 201.147 129.505 202.601 107.38C203.663 91.2195 195.791 84.5461 189.121 87.1198Z" fill="#D7D7D7"/>
<path fill-rule="evenodd" clip-rule="evenodd" d="M299.424 25.7763C296.065 27.0728 294.04 30.0511 293.263 33.9929C289.404 30.6369 285.528 30.9781 282.477 33.4008C269.755 43.5039 295.105 81.4996 327.832 80.2252C327.832 80.2252 311.45 68.1619 312.904 46.0362C313.966 29.876 306.094 23.2027 299.424 25.7763Z" fill="#D7D7D7"/>
<path fill-rule="evenodd" clip-rule="evenodd" d="M212.724 31.9558C209.879 29.7488 206.283 29.5531 202.505 30.9233C203.387 25.8863 201.094 22.744 197.442 21.3827C182.22 15.7067 162.765 57.0315 180.755 84.3941C180.755 84.3941 182.63 64.1384 202.331 53.9588C216.722 46.5232 218.373 36.3374 212.724 31.9558Z" fill="#D7D7D7"/>
<path fill-rule="evenodd" clip-rule="evenodd" d="M158.966 224.83C156.234 224.935 154.046 226.576 152.518 229.217C150.572 225.856 147.704 225.148 144.915 226.138C133.29 230.264 142.147 263.796 165.97 270.933C165.97 270.933 157.172 258.236 163.662 242.701C168.403 231.353 164.391 224.622 158.966 224.83Z" fill="#2277FF"/>
<path fill-rule="evenodd" clip-rule="evenodd" d="M263.025 42.8642C260.449 43.3272 258.594 45.1742 257.497 47.8806C255.205 44.9545 252.392 44.6649 249.881 45.9748C239.412 51.4342 252.275 82.0369 275.806 85.629C275.806 85.629 265.775 74.7662 269.857 59.1769C272.838 47.7901 268.139 41.9446 263.025 42.8642Z" fill="#D7D7D7"/>
<path fill-rule="evenodd" clip-rule="evenodd" d="M271.018 29.7791C271.832 26.2722 270.504 22.9238 267.679 20.0675C272.623 18.7607 274.518 15.3627 274.227 11.4774C273.012 -4.72007 227.33 -5.09089 210.003 22.6956C210.003 22.6956 229.188 15.921 246.681 29.5502C259.457 39.5051 269.401 36.7419 271.018 29.7791Z" fill="#D7D7D7"/>
<path fill-rule="evenodd" clip-rule="evenodd" d="M199.684 153.154C197.997 155.034 197.68 157.54 198.45 160.252C194.969 159.383 192.655 160.83 191.519 163.316C186.785 173.683 214.736 189.362 234.787 178.144C234.787 178.144 220.704 175.819 214.564 161.526C210.08 151.086 203.034 149.421 199.684 153.154Z" fill="#D7D7D7"/>
<path fill-rule="evenodd" clip-rule="evenodd" d="M181.244 182.57C183.089 184.296 183.623 186.766 183.093 189.534C186.485 188.365 188.916 189.605 190.264 191.983C195.884 201.898 169.406 219.952 148.453 210.524C148.453 210.524 162.28 206.982 167.15 192.207C170.707 181.416 177.582 179.144 181.244 182.57Z" fill="#D7D7D7"/>
<path fill-rule="evenodd" clip-rule="evenodd" d="M265.131 102.378C262.785 100.559 259.82 100.397 256.706 101.527C257.433 97.3742 255.542 94.7836 252.532 93.6614C239.983 88.982 223.943 123.051 238.775 145.609C238.775 145.609 240.32 128.91 256.563 120.518C268.426 114.388 269.788 105.99 265.131 102.378Z" fill="#D7D7D7"/>
<path fill-rule="evenodd" clip-rule="evenodd" d="M235.452 65.8328C232.824 64.9247 230.145 65.6739 227.723 67.6124C227.118 63.7108 224.661 61.9815 221.654 61.8918C209.114 61.5171 205.143 96.5605 225.086 112.106C225.086 112.106 221.431 96.8299 233.312 84.4996C241.989 75.4936 240.669 67.636 235.452 65.8328Z" fill="#D7D7D7"/>
<path fill-rule="evenodd" clip-rule="evenodd" d="M173.025 127.178C170.26 127.465 168.148 129.276 166.773 132.056C164.576 128.776 161.618 128.247 158.854 129.436C147.331 134.395 158.545 167.833 183.191 173.495C183.191 173.495 173.421 161.195 178.976 145C183.034 133.171 178.516 126.607 173.025 127.178Z" fill="#D7D7D7"/>
<path fill-rule="evenodd" clip-rule="evenodd" d="M291.68 87.0319C295.039 88.3284 297.064 91.3066 297.842 95.2485C301.7 91.8925 305.576 92.2337 308.627 94.6564C321.349 104.759 295.999 142.755 263.273 141.481C263.273 141.481 279.654 129.417 278.2 107.292C277.138 91.1316 285.01 84.4582 291.68 87.0319Z" fill="#D7D7D7"/>
<path fill-rule="evenodd" clip-rule="evenodd" d="M205.506 199.38C208.865 200.677 210.89 203.655 211.667 207.597C215.526 204.241 219.402 204.582 222.453 207.005C235.175 217.108 209.825 255.103 177.098 253.829C177.098 253.829 193.48 241.766 192.026 219.64C190.963 203.48 198.836 196.806 205.506 199.38Z" fill="#D7D7D7"/>
<path fill-rule="evenodd" clip-rule="evenodd" d="M205.506 199.38C208.865 200.677 210.89 203.655 211.667 207.597C215.526 204.241 219.402 204.582 222.453 207.005C235.175 217.108 209.825 255.103 177.098 253.829C177.098 253.829 193.48 241.766 192.026 219.64C190.963 203.48 198.836 196.806 205.506 199.38Z" fill="#D7D7D7"/>
<path fill-rule="evenodd" clip-rule="evenodd" d="M255.831 149.754C259.191 151.05 261.215 154.029 261.993 157.97C265.852 154.614 269.727 154.956 272.779 157.378C285.501 167.481 260.15 205.477 227.424 204.203C227.424 204.203 243.805 192.139 242.352 170.014C241.289 153.854 249.161 147.18 255.831 149.754Z" fill="#D7D7D7"/>
</svg>
